<svg id="visual" viewBox="0 0 900 600" width="900" height="600" xmlns="http://www.w3.org/2000/svg" xmlns:xlink="http://www.w3.org/1999/xlink" version="1.1"><rect x="0" y="0" width="900" height="600" fill="#001220"></rect><path d="M0 384L21.5 379.5C43 375 86 366 128.8 373.2C171.7 380.3 214.3 403.7 257.2 417.2C300 430.7 343 434.3 385.8 429.8C428.7 425.3 471.3 412.7 514.2 400.8C557 389 600 378 642.8 377.2C685.7 376.3 728.3 385.7 771.2 388.3C814 391 857 387 878.5 385L900 383L900 601L878.5 601C857 601 814 601 771.2 601C728.3 601 685.7 601 642.8 601C600 601 557 601 514.2 601C471.3 601 428.7 601 385.8 601C343 601 300 601 257.2 601C214.3 601 171.7 601 128.8 601C86 601 43 601 21.5 601L0 601Z" fill="#fa7268"></path><path d="M0 477L21.5 471.7C43 466.3 86 455.7 128.8 449.3C171.7 443 214.3 441 257.2 437.5C300 434 343 429 385.8 422.7C428.7 416.3 471.3 408.7 514.2 415.5C557 422.3 600 443.7 642.8 446.5C685.7 449.3 728.3 433.7 771.2 436C814 438.3 857 458.7 878.5 468.8L900 479L900 601L878.5 601C857 601 814 601 771.2 601C728.3 601 685.7 601 642.8 601C600 601 557 601 514.2 601C471.3 601 428.7 601 385.8 601C343 601 300 601 257.2 601C214.3 601 171.7 601 128.8 601C86 601 43 601 21.5 601L0 601Z" fill="#ef5f67"></path><path d="M0 506L21.5 495.2C43 484.3 86 462.7 128.8 456.7C171.7 450.7 214.3 460.3 257.2 470C300 479.7 343 489.3 385.8 485C428.7 480.7 471.3 462.3 514.2 456.5C557 450.7 600 457.3 642.8 466.2C685.7 475 728.3 486 771.2 490.5C814 495 857 493 878.5 492L900 491L900 601L878.5 601C857 601 814 601 771.2 601C728.3 601 685.7 601 642.8 601C600 601 557 601 514.2 601C471.3 601 428.7 601 385.8 601C343 601 300 601 257.2 601C214.3 601 171.7 601 128.8 601C86 601 43 601 21.5 601L0 601Z" fill="#e34c67"></path><path d="M0 503L21.5 504.8C43 506.7 86 510.3 128.8 506.7C171.7 503 214.3 492 257.2 488.7C300 485.3 343 489.7 385.8 493C428.7 496.3 471.3 498.7 514.2 503.2C557 507.7 600 514.3 642.8 514.7C685.7 515 728.3 509 771.2 509.7C814 510.3 857 517.7 878.5 521.3L900 525L900 601L878.5 601C857 601 814 601 771.2 601C728.3 601 685.7 601 642.8 601C600 601 557 601 514.2 601C471.3 601 428.7 601 385.8 601C343 601 300 601 257.2 601C214.3 601 171.7 601 128.8 601C86 601 43 601 21.5 601L0 601Z" fill="#d53867"></path><path d="M0 526L21.5 526.8C43 527.7 86 529.3 128.8 536.7C171.7 544 214.3 557 257.2 557C300 557 343 544 385.8 542.8C428.7 541.7 471.3 552.3 514.2 559.3C557 566.3 600 569.7 642.8 569.3C685.7 569 728.3 565 771.2 557.5C814 550 857 539 878.5 533.5L900 528L900 601L878.5 601C857 601 814 601 771.2 601C728.3 601 685.7 601 642.8 601C600 601 557 601 514.2 601C471.3 601 428.7 601 385.8 601C343 601 300 601 257.2 601C214.3 601 171.7 601 128.8 601C86 601 43 601 21.5 601L0 601Z" fill="#c62368"></path></svg>